# xmcd
# 
# Track frame offsets:
#     150
#     15071
#     128783
#     166860
# 
# Disc length: 3351
# 
# Revision: 0
# Processed by: cddbd v1.5.2PL0 Copyright (c) Steve Scherf et al.
# Submitted via: fre:ac v1.0.17
# 
DISCID=1e0d1504
DTITLE=Stevie Ray Vaughan - Live At Legends Feat. Buddy Guy
DYEAR=1989
DGENRE=Blues
TTITLE0=Still Call The Blues
TTITLE1=Louisiana Blues/Throw Your Love On Me So Strong
TTITLE2=Mary Had A Little Lamb
TTITLE3=Leave My Girl Alone
EXTD=
EXTT0=
EXTT1=
EXTT2=
EXTT3=
PLAYORDER=
